<svg width="110" height="110" viewBox="0 0 110 110" fill="none" xmlns="http://www.w3.org/2000/svg">
<path opacity="0.9" d="M66.7943 59H100.322C101.861 59 103.117 60.2516 103.117 61.7943V95.3222C103.117 96.8606 101.865 98.1165 100.322 98.1165H66.7943C65.2559 98.1165 64 96.8649 64 95.3222V61.7943C64 60.2516 65.2516 59 66.7943 59Z" fill="#CC0000" stroke="#CC0000" stroke-width="2.09793" stroke-linecap="square" stroke-linejoin="round"/>
<path opacity="0.3" d="M64 78.5561H103.112V65.5187C103.112 59 103.112 59 93.3341 59C91.0613 59 73.539 59 70.5187 59C64 59 64 59 64 65.5187V78.5561Z" fill="#FCFFFF"/>
<path d="M70.5187 65.5187L96.5979 91.5935Z" fill="#5C3566"/>
<path d="M70.5187 65.5187L96.5979 91.5935" stroke="#EEEEEC" stroke-width="3.57823" stroke-linecap="round"/>
<path d="M70.5187 91.5935L96.5979 65.5187Z" fill="#5C3566"/>
<path d="M70.5187 91.5935L96.5979 65.5187" stroke="#EEEEEC" stroke-width="3.57823" stroke-linecap="round"/>
<path fill-rule="evenodd" clip-rule="evenodd" d="M98.5745 50.8267C98.5745 28.8269 80.9706 11.0485 59.2057 11.0485L54.3877 11.0483H31.5417C31.0617 11.0188 30.576 11 30.0889 11C29.602 11 29.1172 11.0188 28.6386 11.0483C28.4662 11.0483 28.2707 11.0646 28.345 11.0694C15.8561 11.976 6 22.498 6 35.3449H6.01978C6.06754 39.6302 9.51459 43.09 13.7652 43.09C18.0439 43.09 21.5141 39.5842 21.5141 35.259C21.5596 30.509 25.3768 26.676 30.0889 26.676C34.8241 26.676 38.6707 30.5573 38.6707 35.3449C38.6707 39.9138 35.1679 43.6491 30.7308 43.9812C30.7185 43.9812 30.7071 43.98 30.6956 43.9788C30.6843 43.9776 30.6729 43.9764 30.6608 43.9764C26.9063 43.9764 23.8601 47.0559 23.8601 50.8501C23.8601 54.6455 26.9063 57.725 30.6608 57.725C30.7039 57.725 30.7468 57.7209 30.794 57.7163L30.8018 57.7156C35.2014 58.0876 38.6705 61.803 38.6705 66.3471C38.6705 71.1361 34.8241 75.0208 30.0887 75.0208C25.3627 75.0208 21.5337 71.1595 21.5071 66.3942C21.5071 66.3841 21.509 66.3754 21.5108 66.3673C21.5124 66.3603 21.5139 66.3537 21.5139 66.3471C21.5139 62.0243 18.0436 58.5162 13.765 58.5162C9.48525 58.5162 6.01501 62.0241 6.01501 66.3471H6C6 79.2022 15.8479 89.7031 28.3252 90.6166C28.0633 90.6449 31.0546 90.6731 31.5324 90.6449H49.0314C52.4328 90.6449 59.159 90.6591 59.159 90.6591C59.7657 90.6591 60.3691 90.6452 60.969 90.6178V74.3875C59.9589 74.765 58.847 74.9739 57.6792 74.9739C53.333 74.9739 49.7591 72.0824 49.3245 68.3721H49.2722V55.1919H49.277C49.277 51.1233 53.0372 47.8273 57.6794 47.8273C62.318 47.8273 66.0784 51.1233 66.0784 55.1919H66.0832L66.0831 56.2646H98.2102C98.4504 54.4867 98.5745 52.6713 98.5745 50.8267ZM57.6796 26.7148C62.3182 26.7148 66.0786 30.5161 66.0786 35.2038C66.0786 39.8903 62.318 43.6903 57.6796 43.6903C53.0422 43.6903 49.2772 39.8903 49.2772 35.2038C49.2772 30.5161 53.0419 26.7148 57.6796 26.7148Z" fill="#333333"/>
</svg>
