<svg width="40" height="35" viewBox="0 0 40 35" fill="none" xmlns="http://www.w3.org/2000/svg">
<g clip-path="url(#clip0_4115_990)">
<path d="M37 0C38.6569 0 40 1.34315 40 3V32C40 33.6569 38.6569 35 37 35H3C1.34315 35 4.42933e-08 33.6569 0 32V3C0 1.34315 1.34315 6.44255e-08 3 0H37Z" fill="#6EA3CD"/>
<path d="M24 6V12.12L14.12 22H8V30H16V23.8933L25.8933 14H32V6M26.6667 8.66667H29.3333V11.3333H26.6667M10.6667 24.6667H13.3333V27.3333H10.6667" fill="white"/>
<path d="M16 10L12 14L8 10H11V6H13V10H16Z" fill="white"/>
</g>
<defs>
<clipPath id="clip0_4115_990">
<rect width="40" height="35" fill="white"/>
</clipPath>
</defs>
</svg>
