<svg width="40" height="35" viewBox="0 0 40 35" fill="none" xmlns="http://www.w3.org/2000/svg">
<g clip-path="url(#clip0_3646_820)">
<path d="M37 0C38.6569 0 40 1.34315 40 3V32C40 33.6569 38.6569 35 37 35H3C1.34315 35 4.42933e-08 33.6569 0 32V3C0 1.34315 1.34315 6.44255e-08 3 0H37Z" fill="#6EA3CD"/>
<path d="M11.1748 18.9785C11.1634 19.5707 11.2607 20.0659 11.4669 20.4643C11.673 20.8627 11.9536 21.1803 12.3086 21.4172C12.6751 21.6541 13.1045 21.8264 13.5969 21.9341C14.0894 22.031 14.6162 22.0794 15.1773 22.0794C15.498 22.0794 15.8473 22.0363 16.2252 21.9502C16.6031 21.8641 16.9524 21.7295 17.2731 21.5464C17.6052 21.3526 17.88 21.1104 18.0976 20.8196C18.3152 20.5182 18.424 20.1575 18.424 19.7376C18.424 19.4145 18.3438 19.1346 18.1835 18.8977C18.0346 18.6608 17.8342 18.4616 17.5823 18.3001C17.3418 18.1386 17.0726 18.0094 16.7749 17.9125C16.4771 17.8048 16.1851 17.7187 15.8988 17.6541L13.1675 17.0242C12.8125 16.9381 12.4632 16.8304 12.1196 16.7012C11.7875 16.572 11.4955 16.3997 11.2435 16.1844C10.9916 15.969 10.7855 15.7052 10.6251 15.393C10.4763 15.0808 10.4018 14.6985 10.4018 14.2463C10.4018 13.9664 10.4591 13.638 10.5736 13.2611C10.6881 12.8843 10.9 12.5289 11.2092 12.1952C11.5298 11.8614 11.965 11.5814 12.5147 11.3553C13.0644 11.1184 13.7687 11 14.6276 11C15.2346 11 15.8129 11.0754 16.3626 11.2261C16.9123 11.3769 17.3933 11.603 17.8056 11.9044C18.2178 12.2059 18.5442 12.5828 18.7847 13.035C19.0367 13.4764 19.1626 13.9933 19.1626 14.5855H17.9945C17.9716 14.144 17.8628 13.7618 17.6681 13.4388C17.4849 13.105 17.2387 12.8304 16.9295 12.6151C16.6317 12.389 16.2824 12.2221 15.8816 12.1144C15.4923 11.996 15.08 11.9367 14.6448 11.9367C14.244 11.9367 13.8546 11.9798 13.4767 12.0659C13.1102 12.1413 12.7838 12.2705 12.4975 12.4536C12.2227 12.6258 11.9994 12.8573 11.8276 13.148C11.6558 13.4388 11.5699 13.7995 11.5699 14.2301C11.5699 14.4993 11.6157 14.7362 11.7074 14.9408C11.8104 15.1346 11.9478 15.3015 12.1196 15.4415C12.2914 15.5814 12.4861 15.6945 12.7037 15.7806C12.9327 15.8668 13.1732 15.9367 13.4252 15.9906L16.4141 16.6851C16.8493 16.7927 17.2559 16.9273 17.6338 17.0888C18.0232 17.2396 18.361 17.4334 18.6473 17.6703C18.9451 17.8964 19.1741 18.1763 19.3344 18.5101C19.5062 18.8439 19.5921 19.2476 19.5921 19.7214C19.5921 19.8506 19.5749 20.0229 19.5406 20.2382C19.5177 20.4536 19.4489 20.6851 19.3344 20.9327C19.2314 21.1696 19.0768 21.4118 18.8706 21.6595C18.6759 21.9071 18.4011 22.1332 18.0461 22.3378C17.7025 22.5316 17.2731 22.6878 16.7577 22.8062C16.2424 22.9354 15.624 23 14.9025 23C14.181 23 13.5111 22.9246 12.8926 22.7739C12.2742 22.6124 11.7474 22.3701 11.3123 22.0471C10.8771 21.7241 10.5392 21.3096 10.2987 20.8035C10.0697 20.2974 9.97237 19.6891 10.0067 18.9785H11.1748Z" fill="white"/>
<path d="M21.4453 11.2423H29.9141V12.179H22.6134V16.3459H29.4503V17.2826H22.6134V21.8371H30V22.7739H21.4453V11.2423Z" fill="white"/>
</g>
<defs>
<clipPath id="clip0_3646_820">
<rect width="40" height="35" fill="white"/>
</clipPath>
</defs>
</svg>
