<svg width="110" height="110" viewBox="0 0 110 110" fill="none" xmlns="http://www.w3.org/2000/svg">
<path d="M95.7529 58H71.2471C66.6924 58 63 61.6924 63 66.2471V90.7529C63 95.3076 66.6924 99 71.2471 99H95.7529C100.308 99 104 95.3076 104 90.7529V66.2471C104 61.6924 100.308 58 95.7529 58Z" fill="#5A8C5A"/>
<path fill-rule="evenodd" clip-rule="evenodd" d="M71.2001 78.4999H95.8001Z" fill="white"/>
<path d="M71.2001 78.4999H95.8001" stroke="white" stroke-width="4.19686" stroke-linecap="round" stroke-linejoin="round"/>
<path fill-rule="evenodd" clip-rule="evenodd" d="M83.5001 90.8V66.2Z" fill="white"/>
<path d="M83.5001 90.8V66.2" stroke="white" stroke-width="4.19686" stroke-linecap="round" stroke-linejoin="round"/>
<path opacity="0.3" fill-rule="evenodd" clip-rule="evenodd" d="M67.1 78.5H99.9C99.9 78.5 99.9 78.5 99.9 70.3C99.9 62.1 97.85 62.1 83.5 62.1C69.15 62.1 67.1 62.1 67.1 70.3V78.5Z" fill="#FCFFFF"/>
<path fill-rule="evenodd" clip-rule="evenodd" d="M99.0161 50.7073C99.0161 28.7734 81.3283 11.0483 59.4595 11.0483L54.6185 11.0481H31.6636C31.1812 11.0188 30.6932 11 30.2038 11C29.7146 11 29.2275 11.0188 28.7466 11.0481C28.5734 11.0481 28.3769 11.0644 28.4516 11.0692C15.9031 11.973 6 22.4635 6 35.2719H6.01988C6.06786 39.5443 9.53136 42.9938 13.8023 42.9938C18.1013 42.9938 21.5881 39.4985 21.5881 35.1862C21.6338 30.4505 25.4693 26.629 30.2038 26.629C34.9616 26.629 38.8266 30.4986 38.8266 35.2719C38.8266 39.8271 35.3071 43.5512 30.8488 43.8823C30.8364 43.8823 30.8249 43.8811 30.8135 43.8799C30.802 43.8787 30.7906 43.8775 30.7784 43.8775C27.006 43.8775 23.9453 46.9478 23.9453 50.7306C23.9453 54.5146 27.006 57.5849 30.7784 57.5849C30.8218 57.5849 30.8649 57.5808 30.9123 57.5763L30.9201 57.5755C35.3407 57.9464 38.8263 61.6507 38.8263 66.1811C38.8263 70.9558 34.9616 74.8289 30.2036 74.8289C25.4551 74.8289 21.6078 70.9791 21.5811 66.2281C21.5811 66.218 21.583 66.2094 21.5848 66.2013C21.5864 66.1943 21.5879 66.1877 21.5879 66.1811C21.5879 61.8713 18.1011 58.3737 13.8021 58.3737C9.50188 58.3737 6.01508 61.8711 6.01508 66.1811H6C6 78.9977 15.8949 89.4672 28.4317 90.3779C28.1685 90.4061 31.1742 90.4342 31.6542 90.4061H49.2367C52.6543 90.4061 59.4127 90.4203 59.4127 90.4203C60.0222 90.4203 60.6285 90.4064 61.2313 90.3791V74.1974C60.2164 74.5738 59.0992 74.7821 57.9257 74.7821C53.5588 74.7821 49.9678 71.8992 49.5312 68.2H49.4787V55.0594H49.4835C49.4835 51.003 53.2616 47.7169 57.926 47.7169C62.5867 47.7169 66.365 51.003 66.365 55.0594H66.3698L66.3698 56.1289H98.6501C98.8914 54.3563 99.0161 52.5464 99.0161 50.7073ZM57.9262 26.6677C62.5869 26.6677 66.3653 30.4576 66.3653 35.1312C66.3653 39.8037 62.5867 43.5923 57.9262 43.5923C53.2666 43.5923 49.4837 39.8037 49.4837 35.1312C49.4837 30.4576 53.2664 26.6677 57.9262 26.6677Z" fill="#333333"/>
</svg>
